<svg width="32.000000" height="32.000000" viewBox="0 0 32 32" fill="none" xmlns="http://www.w3.org/2000/svg" xmlns:xlink="http://www.w3.org/1999/xlink">
	<desc>
			Created with Pixso.
	</desc>
	<defs/>
	<path id="Path" d="M9.38 10.33C9.16 9.84 9.29 9.26 9.67 8.88L11.1 7.45C12.27 6.28 12.27 4.62 11.25 3.59L9.19 1.54C7.83 0.17 5.61 0.17 4.25 1.54L3.1 2.68C1.81 3.98 1.27 5.85 1.62 7.7C2.48 12.27 5.14 17.28 9.42 21.57C13.71 25.85 18.72 28.51 23.29 29.37C25.14 29.72 27.01 29.18 28.31 27.89L29.45 26.75C30.82 25.38 30.82 23.16 29.45 21.8L27.4 19.74C26.37 18.72 24.71 18.72 23.69 19.74L22.11 21.33C21.73 21.71 21.15 21.83 20.66 21.62C18.33 20.59 16.04 19.04 13.99 17C11.95 14.95 10.4 12.66 9.38 10.33Z" stroke="#737BE1" stroke-opacity="1.000000" stroke-width="3.000000" stroke-linejoin="round"/>
</svg>
